<?xml version="1.0" standalone="no"?>
<!DOCTYPE svg PUBLIC "-//W3C//DTD SVG 20010904//EN"
 "http://www.w3.org/TR/2001/REC-SVG-20010904/DTD/svg10.dtd">
<svg version="1.0" xmlns="http://www.w3.org/2000/svg"
 width="923.000000pt" height="355.000000pt" viewBox="0 0 923.000000 355.000000"
 preserveAspectRatio="xMidYMid meet">

<g transform="translate(0.000000,355.000000) scale(0.100000,-0.100000)"
fill="#000000" stroke="none">
<path d="M2267 3489 c-48 -25 -54 -40 -67 -168 -6 -58 -12 -106 -14 -109 -2
-2 -7 27 -11 65 -15 159 -29 183 -83 143 -49 -36 -58 -70 -40 -147 l16 -66
-37 43 c-51 60 -73 54 -134 -35 -50 -72 -56 -106 -25 -142 17 -21 68 -46 108
-52 l35 -6 -118 -79 c-66 -44 -153 -112 -195 -153 -41 -40 -77 -71 -79 -69 -3
2 -7 46 -10 98 -5 82 -3 99 17 146 56 130 -23 278 -187 355 -180 83 -243 74
-366 -51 -93 -94 -123 -131 -199 -247 -162 -244 -249 -492 -283 -805 -6 -56
-6 -56 -53 -72 -129 -47 -305 -201 -385 -338 -167 -288 -166 -618 3 -872 158
-237 416 -378 690 -379 392 0 769 227 1098 664 61 80 58 85 66 -118 12 -305
66 -610 152 -855 62 -178 89 -215 164 -215 78 0 100 32 175 260 76 230 130
545 141 830 3 77 8 146 10 153 2 8 28 -18 58 -58 270 -360 574 -576 906 -645
322 -68 667 66 855 330 156 219 191 468 104 730 -43 128 -101 225 -197 326
-89 94 -175 156 -263 189 l-56 22 -7 85 c-13 178 -73 387 -161 570 -120 247
-336 512 -445 544 -51 15 -154 -8 -248 -55 -149 -75 -229 -230 -174 -337 13
-25 17 -58 17 -129 0 -142 -1 -142 -88 -57 -40 40 -127 108 -192 152 l-118 78
46 12 c59 15 95 40 108 73 14 37 7 58 -46 130 -55 75 -78 80 -125 25 l-31 -38
5 30 c4 17 9 45 12 62 8 43 -10 85 -48 113 -54 40 -68 16 -83 -143 -4 -38 -8
-67 -10 -65 -2 2 -8 50 -15 108 -6 58 -15 115 -20 127 -11 25 -78 63 -112 63
-13 -1 -40 -10 -61 -21z m-547 -999 c89 -14 180 -60 230 -117 30 -34 37 -49
28 -54 -24 -15 -98 -21 -165 -14 -57 6 -72 12 -100 40 -21 21 -35 46 -39 73
-4 27 -13 43 -24 47 -10 3 -24 12 -30 20 -15 19 6 19 100 5z m1320 0 c0 -6
-11 -15 -24 -21 -17 -8 -28 -26 -37 -62 -17 -63 -56 -93 -135 -103 -59 -7
-135 0 -161 15 -25 13 56 94 133 132 77 38 224 63 224 39z m-2377 -562 c-64
-59 -116 -144 -150 -241 -24 -71 -28 -97 -28 -197 0 -103 3 -121 26 -170 32
-68 103 -139 178 -176 49 -25 67 -29 141 -29 79 1 91 4 170 42 173 83 372 254
581 501 67 78 144 100 224 63 49 -22 73 -48 91 -98 25 -73 19 -98 -50 -202
-235 -352 -537 -591 -831 -656 -99 -22 -252 -16 -345 14 -233 74 -407 284
-435 522 -25 213 113 493 302 612 45 29 118 56 150 57 19 0 16 -6 -24 -42z
m1800 15 c70 -15 127 -31 127 -34 0 -14 -196 -54 -260 -54 -65 0 -260 40 -260
54 0 6 213 57 250 60 8 1 72 -11 143 -26z m1631 -16 c71 -37 168 -129 219
-207 20 -30 51 -93 68 -140 27 -72 33 -102 37 -202 4 -98 1 -127 -16 -185 -57
-185 -216 -345 -412 -415 -55 -19 -85 -22 -200 -23 -112 0 -147 4 -207 23
-102 32 -239 103 -335 174 -211 155 -498 507 -498 610 0 34 24 95 48 122 25
27 91 56 133 56 65 0 95 -18 161 -98 94 -115 261 -278 368 -361 51 -40 137
-93 189 -119 89 -43 101 -46 176 -47 66 0 90 5 137 27 63 29 137 93 169 144
100 162 34 486 -130 636 l-56 51 44 -7 c25 -4 72 -21 105 -39z m-1649 -281
c66 -15 100 -27 100 -36 0 -9 -36 -21 -107 -37 l-108 -24 -107 24 c-138 30
-140 43 -13 73 120 27 116 27 235 0z m-1630 -202 c66 -37 124 -70 129 -74 14
-13 -72 -51 -119 -53 -76 -3 -145 71 -145 158 0 19 3 35 8 35 4 0 61 -30 127
-66z m3162 14 c-8 -66 -30 -96 -90 -126 -45 -23 -48 -23 -99 -8 -104 30 -103
33 44 113 73 40 137 73 142 73 5 0 6 -24 3 -52z m-1537 -122 c52 -13 88 -26
80 -29 -34 -14 -154 -37 -189 -37 -43 0 -181 28 -194 40 -7 6 156 47 193 49 8
0 58 -10 110 -23z m-21 -302 c39 -9 69 -19 66 -24 -2 -4 -38 -13 -80 -20 -61
-10 -89 -10 -150 0 -42 7 -78 16 -80 21 -6 8 103 37 146 38 15 1 59 -6 98 -15z
m-31 -298 c35 -8 66 -16 69 -19 21 -21 -206 -30 -242 -10 -18 11 -18 12 10 18
17 4 44 11 60 15 40 11 32 11 103 -4z"/>
<path d="M8070 1825 l0 -495 65 0 65 0 0 293 c0 284 1 295 21 313 15 14 24 16
37 7 15 -9 17 -41 20 -312 l2 -301 65 0 65 0 0 319 c0 202 -4 330 -11 348 -29
78 -89 94 -155 42 l-39 -31 -3 156 -3 156 -64 0 -65 0 0 -495z"/>
<path d="M7790 2155 l0 -95 -35 0 -35 0 0 -55 0 -55 35 0 35 0 0 -222 c0 -261
11 -327 59 -370 34 -31 85 -43 136 -34 l35 7 0 66 c0 65 0 65 -25 60 -16 -3
-34 2 -48 13 -22 18 -22 23 -22 247 l0 228 48 3 47 3 0 54 0 54 -47 3 -48 3
-3 93 -3 92 -64 0 -65 0 0 -95z"/>
<path d="M5200 2040 c-43 -36 -50 -37 -50 -5 0 24 -2 25 -65 25 l-65 0 0 -365
0 -365 65 0 65 0 0 295 0 295 26 17 c19 12 30 14 43 6 14 -9 16 -44 19 -312
l2 -301 65 0 65 0 0 294 c0 293 0 295 22 310 28 20 33 20 52 0 14 -13 16 -56
16 -310 l0 -294 60 0 60 0 0 319 c0 202 -4 330 -11 348 -30 81 -89 94 -165 37
-42 -32 -48 -34 -57 -19 -35 63 -92 73 -147 25z"/>
<path d="M5765 2058 c-61 -34 -105 -103 -105 -168 l0 -40 65 0 65 0 0 36 c0
45 15 74 40 74 28 0 40 -30 40 -98 l0 -60 -69 -41 c-38 -23 -83 -57 -99 -77
-93 -112 -72 -340 32 -360 38 -7 89 15 109 46 16 27 25 25 29 -7 3 -27 5 -28
68 -31 l65 -3 -3 293 c-1 161 -4 307 -7 325 -7 38 -46 88 -86 108 -33 18 -115
19 -144 3z m105 -475 c0 -76 -4 -100 -17 -115 -22 -24 -49 -23 -67 4 -28 40
-14 125 30 178 45 53 54 42 54 -67z"/>
<path d="M6250 2040 c-43 -36 -50 -37 -50 -5 0 24 -2 25 -65 25 l-65 0 0 -365
0 -365 65 0 65 0 2 291 3 292 25 19 c15 11 33 16 43 12 15 -6 17 -33 17 -310
l0 -304 65 0 65 0 0 295 0 295 24 15 c19 13 29 14 45 5 21 -10 21 -18 21 -310
l0 -300 60 0 60 0 0 325 c0 284 -2 330 -17 358 -35 69 -86 76 -158 20 -36 -27
-50 -33 -53 -23 -3 8 -15 24 -28 37 -33 33 -81 31 -124 -7z"/>
<path d="M6893 2041 c-42 -31 -53 -31 -53 1 0 16 -9 18 -65 18 l-65 0 0 -365
0 -365 70 0 70 0 0 294 c0 293 0 295 22 310 28 20 33 20 52 0 14 -13 16 -56
16 -310 l0 -294 60 0 60 0 0 295 0 295 26 17 c19 12 30 14 43 6 14 -9 16 -44
19 -312 l2 -301 65 0 65 0 0 295 c0 179 -4 314 -11 346 -22 103 -91 129 -166
64 -43 -37 -63 -44 -63 -22 0 24 -45 57 -77 57 -17 0 -47 -12 -70 -29z"/>
<path d="M7416 2040 c-62 -55 -68 -85 -64 -361 3 -238 4 -245 27 -283 57 -92
193 -101 264 -17 43 51 48 93 45 339 -3 207 -5 230 -24 267 -32 61 -74 85
-150 85 -56 0 -67 -3 -98 -30z m141 -110 c9 -18 13 -86 13 -235 0 -175 -3
-214 -16 -233 -19 -27 -60 -29 -74 -3 -6 12 -10 107 -10 238 0 184 3 222 16
241 20 29 54 25 71 -8z"/>
<path d="M8472 2003 l3 -58 78 -3 c70 -3 78 -5 72 -20 -4 -9 -44 -119 -91
-243 -72 -193 -84 -236 -84 -288 l0 -61 160 0 160 0 0 60 0 60 -90 0 c-49 0
-90 4 -90 9 0 5 41 118 90 250 73 196 90 253 90 297 l0 54 -150 0 -151 0 3
-57z"/>
<path d="M8780 2051 c0 -5 27 -175 61 -377 35 -217 58 -382 54 -400 -8 -45
-47 -84 -85 -84 l-30 0 0 -61 0 -61 59 4 c45 3 68 11 96 32 66 51 79 94 150
529 36 218 65 404 65 412 0 13 -11 15 -62 13 l-62 -3 -28 -225 c-15 -124 -27
-231 -27 -239 -2 -44 -12 19 -37 232 l-28 237 -63 0 c-35 0 -63 -4 -63 -9z"/>
<path d="M1600 794 c-63 -53 -118 -99 -122 -103 -7 -6 -48 -375 -48 -433 l0
-28 124 0 125 0 3 47 3 48 16 -45 16 -45 96 -3 c106 -3 103 -5 88 61 -5 20 -7
37 -5 37 2 0 15 -22 29 -50 l25 -50 71 0 c64 0 70 2 64 18 -16 41 -66 279 -90
432 -15 91 -28 175 -31 188 -4 21 -8 22 -127 22 l-122 0 -115 -96z"/>
<path d="M2695 878 c-2 -7 -9 -51 -15 -98 -16 -125 -87 -474 -104 -515 l-15
-35 74 0 75 0 25 48 25 47 -6 -47 -6 -48 95 0 96 0 20 53 20 52 0 -52 1 -53
125 0 c93 0 125 3 125 13 0 51 -42 443 -48 448 -4 4 -59 50 -122 103 l-115 96
-123 0 c-89 0 -124 -3 -127 -12z"/>
</g>
</svg>
